<?xml version="1.0" standalone="no"?>
<!DOCTYPE svg PUBLIC "-//W3C//DTD SVG 1.1//EN" "http://www.w3.org/Graphics/SVG/1.1/DTD/svg11.dtd" >
<svg xmlns="http://www.w3.org/2000/svg" xmlns:xlink="http://www.w3.org/1999/xlink" version="1.1">
<metadata></metadata>
<defs>
<font id="harmonyos_sans_scregular" horiz-adv-x="1167" vert-adv-y="2048" >
<font-face units-per-em="2048" ascent="1638" descent="-410" />
<missing-glyph horiz-adv-x="552" />
<glyph horiz-adv-x="0" vert-adv-y="0" />
<glyph horiz-adv-x="682" />
<glyph unicode=" "  horiz-adv-x="552" />
<glyph unicode="&#x09;" horiz-adv-x="552" />
<glyph unicode="&#xa0;" horiz-adv-x="552" />
<glyph unicode="!" horiz-adv-x="481" d="M125 94q0 49 34 84t81 35q49 0 82.5 -35t33.5 -84q0 -47 -33.5 -82t-82.5 -35q-47 0 -81 35t-34 82zM147 1554h183l-27 -1132h-129z" />
<glyph unicode="&#x22;" horiz-adv-x="702" d="M115 1645h153l-8 -502h-137zM434 1645h154l-8 -502h-138z" />
<glyph unicode="#" horiz-adv-x="1320" d="M29 375v160h254l100 423h-217v160h254l90 383h164l-90 -383h329l91 383h163l-90 -383h215v-160h-252l-100 -423h215v-160h-252l-90 -381h-164l90 381h-329l-91 -381h-163l90 381h-217zM446 535h330l101 423h-330z" />
<glyph unicode="$" d="M55 377l142 86q84 -262 323 -309v532q-127 43 -211 89t-140 126t-56 203q0 178 114.5 287.5t292.5 128.5v256h166v-258q154 -25 257.5 -118t125.5 -212l-141 -86q-25 90 -86.5 154.5t-155.5 89.5v-533q129 -45 213 -91t140.5 -126t56.5 -201q0 -168 -109.5 -281.5 t-300.5 -131.5v-273h-166v275q-176 23 -302 127t-163 266zM291 1120q0 -90 59.5 -147.5t169.5 -100.5v482q-104 -16 -166.5 -78t-62.5 -156zM686 150q111 14 170 74.5t59 152.5t-59 149.5t-170 100.5v-477z" />
<glyph unicode="%" horiz-adv-x="1579" d="M41 1186q0 102 44 179t119 118t167 41t167.5 -41t119.5 -118t44 -179q0 -103 -44 -179.5t-119.5 -117.5t-167.5 -41t-167 41t-119 117.5t-44 179.5zM205 1186q0 -84 47 -136.5t119 -52.5t120 52.5t48 136.5t-48.5 136t-119.5 52q-70 0 -118 -52t-48 -136zM248 0l895 1501 h188l-895 -1501h-188zM877 315q0 102 44 179t118.5 118t166.5 41t168 -41t120 -117.5t44 -179.5q0 -102 -44 -179t-120 -118t-168 -41t-166.5 41t-118.5 118t-44 179zM1040 315q0 -84 47.5 -136t118.5 -52q72 0 120 52t48 136t-48 136.5t-120 52.5q-70 0 -118 -52.5 t-48 -136.5z" />
<glyph unicode="&#x26;" horiz-adv-x="1445" d="M98 418q0 172 92.5 278.5t253.5 190.5q-88 104 -124.5 181t-36.5 163q0 111 54 189.5t144 119.5t199 41q115 0 200 -44t131 -120t46 -172t-47 -165.5t-119 -118t-186 -105.5l333 -371q80 178 103 404h176q-45 -317 -162 -535l318 -354h-238l-182 203q-188 -225 -467 -226 q-135 0 -246 51.5t-176.5 152t-65.5 237.5zM289 424q0 -137 86 -210t219 -73q207 1 350 185l-401 448q-121 -70 -187.5 -149.5t-66.5 -200.5zM473 1233q0 -57 31 -116.5t104 -147.5q127 63 192.5 123.5t65.5 150.5q0 76 -48 125t-140 49t-148.5 -50t-56.5 -134z" />
<glyph unicode="'" horiz-adv-x="382" d="M115 1645h153l-8 -502h-137z" />
<glyph unicode="(" horiz-adv-x="704" d="M141 721q0 289 96.5 533.5t264.5 414.5h166q-166 -201 -255 -433t-89 -515q0 -285 89 -518.5t255 -429.5h-166q-168 170 -264.5 413.5t-96.5 534.5z" />
<glyph unicode=")" horiz-adv-x="704" d="M37 -227q166 197 255 430t89 518q0 283 -89 515t-255 433h166q168 -170 264 -414.5t96 -533.5q0 -291 -96 -534.5t-264 -413.5h-166z" />
<glyph unicode="*" horiz-adv-x="880" d="M72 993l256 125l-256 127l75 131l238 -159l-20 284h151l-20 -284l237 159l76 -131l-256 -127l256 -125l-76 -131l-237 160l20 -285h-151l20 285l-238 -160z" />
<glyph unicode="+" d="M104 664v155h402v402h156v-402h401v-155h-401v-402h-156v402h-402z" />
<glyph unicode="," horiz-adv-x="493" d="M125 -225q139 43 147 198q-6 -2 -18 -2q-51 0 -81 35t-30 84q0 51 32 85t81 34q59 0 96 -46t37 -143q0 -139 -72.5 -229t-191.5 -113v97z" />
<glyph unicode="-" horiz-adv-x="999" d="M127 545v147h745v-147h-745z" />
<glyph unicode="." horiz-adv-x="473" d="M121 96q0 49 33.5 84t81.5 35q49 0 82.5 -35t33.5 -84t-33.5 -84t-82.5 -35q-48 0 -81.5 36t-33.5 83z" />
<glyph unicode="/" horiz-adv-x="798" d="M31 0l561 1499h176l-561 -1499h-176z" />
<glyph unicode="0" d="M98 750q0 381 126 578.5t360 197.5q236 0 361.5 -196.5t125.5 -579.5q0 -381 -126 -577t-361 -196q-233 0 -359.5 197t-126.5 576zM293 750q0 -306 70.5 -455.5t220.5 -149.5t221.5 148.5t71.5 456.5q0 309 -72 459.5t-221 150.5q-150 0 -220.5 -150.5t-70.5 -459.5z" />
<glyph unicode="1" d="M203 1059v188l436 254h139v-1501h-184v1282z" />
<glyph unicode="2" d="M102 0v117l486 540q137 152 188 239t51 189q0 131 -71.5 203t-180.5 72q-111 0 -194.5 -75t-120.5 -198l-147 84q45 168 178 261.5t297 93.5q119 0 217 -50.5t156.5 -147.5t58.5 -234q0 -133 -65.5 -252t-229.5 -299l-344 -381h678v-162h-957z" />
<glyph unicode="3" d="M94 307l148 84q39 -123 134 -185.5t206 -62.5q121 0 201.5 75t80.5 208q0 274 -375 274h-63l2 164h72q152 0 230.5 74t78.5 188q0 109 -67.5 170.5t-174.5 61.5q-111 0 -187.5 -65.5t-117.5 -188.5l-147 84q49 166 173 251t290 85q193 0 309.5 -108.5t116.5 -285.5 q0 -113 -52.5 -198.5t-160.5 -130.5q135 -43 201.5 -139.5t66.5 -237.5q0 -139 -65.5 -240.5t-174 -154t-237.5 -52.5q-164 0 -302.5 84t-185.5 246z" />
<glyph unicode="4" d="M76 332v127l563 1042h199l-549 -1012h450v420h183v-420h215v-157h-215v-332h-183v332h-663z" />
<glyph unicode="5" d="M141 270l148 84q37 -104 107.5 -157.5t170.5 -53.5q135 0 213 90.5t78 231.5q0 137 -74.5 231.5t-216.5 94.5q-178 0 -278 -162l-117 59l102 815h709v-160h-549l-59 -444q90 57 219 57q133 0 237.5 -62.5t162 -172t57.5 -248.5q0 -145 -63.5 -258t-174.5 -175.5 t-246 -62.5q-150 0 -265.5 75t-160.5 218z" />
<glyph unicode="6" d="M113 463q0 111 40 204t132 244l358 590h207l-309 -504q-29 -45 -58 -84q63 20 142 21q133 0 237.5 -63.5t162.5 -172t58 -239.5q0 -135 -62.5 -246t-174 -173.5t-248.5 -62.5q-141 0 -251.5 61.5t-172 172.5t-61.5 252zM307 453q0 -139 79 -224.5t212 -85.5q131 0 210 86 t79 224q0 139 -78 226t-211 87t-212 -87t-79 -226z" />
<glyph unicode="7" d="M115 1343v158h934v-112l-562 -1389h-200l555 1343h-727z" />
<glyph unicode="8" d="M98 424q0 133 66.5 235.5t185.5 155.5q-94 49 -147 132t-53 188q0 106 55 196t155.5 142.5t227.5 52.5q125 0 222 -52.5t150.5 -141.5t53.5 -197q0 -104 -51.5 -187.5t-143.5 -132.5q117 -53 183.5 -155.5t66.5 -235.5q0 -127 -60.5 -228.5t-170 -160t-250.5 -58.5 q-145 0 -256 57.5t-172.5 160t-61.5 229.5zM293 430q0 -135 80 -212t215 -77q131 0 211 78t80 211q0 135 -78 215t-213 80q-137 0 -216 -80t-79 -215zM340 1128q0 -104 66.5 -169.5t181.5 -65.5q113 0 178 66.5t65 168.5q0 104 -65.5 171t-177.5 67q-115 0 -181.5 -65.5 t-66.5 -172.5z" />
<glyph unicode="9" d="M88 1044q0 135 62.5 246t174 173.5t248.5 62.5q142 0 252.5 -61.5t172 -172t61.5 -252.5q0 -111 -40 -204t-132 -244l-359 -590h-206l309 504q29 45 57 84q-63 -20 -141 -21q-133 0 -237.5 63.5t-163 172t-58.5 239.5zM285 1051q0 -139 77.5 -226.5t210.5 -87.5 q134 0 212.5 87t78.5 227q0 139 -78.5 224t-212.5 85q-131 0 -209.5 -86t-78.5 -223z" />
<glyph unicode=":" horiz-adv-x="522" d="M145 96q0 49 34 84t81 35q49 0 83 -35t34 -84t-34 -84t-83 -35q-47 0 -81 35t-34 84zM145 969q0 49 34 83.5t81 34.5q49 0 83 -34.5t34 -83.5t-34 -84t-83 -35q-47 0 -81 35t-34 84z" />
<glyph unicode=";" horiz-adv-x="542" d="M141 -225q139 43 148 198q-6 -2 -19 -2q-51 0 -80.5 35t-29.5 84q0 51 31.5 85t80.5 34q60 0 97 -46t37 -143q0 -139 -73 -229t-192 -113v97zM166 969q0 49 33.5 83.5t81.5 34.5q49 0 82.5 -34.5t33.5 -83.5t-33.5 -84t-82.5 -35q-48 0 -81.5 35t-33.5 84z" />
<glyph unicode="&#x3c;" d="M104 670v143l959 410v-174l-719 -308l719 -307v-174z" />
<glyph unicode="=" d="M104 451v155h959v-155h-959zM104 879v155h959v-155h-959z" />
<glyph unicode="&#x3e;" d="M104 260v174l719 307l-719 308v174l959 -410v-143z" />
<glyph unicode="?" horiz-adv-x="884" d="M-4 1262q51 150 175 232.5t286 82.5q121 0 213 -46t143 -127t51 -181q0 -102 -48 -171t-144 -153q-68 -63 -109 -108.5t-68.5 -107.5t-27.5 -144q0 -57 14 -117h-141q-27 92 -27 170q0 84 28 148.5t66.5 108.5t104.5 105q80 72 119 126.5t39 127.5q0 92 -63.5 147.5 t-166.5 55.5q-209 0 -303 -231zM313 94q0 49 34 84t81 35q49 0 83 -35t34 -84q0 -47 -34 -82t-83 -35q-47 0 -81 35t-34 82z" />
<glyph unicode="@" horiz-adv-x="1996" d="M104 655q0 270 120 481.5t332 328t480 116.5q258 0 458 -106.5t312.5 -310t112.5 -482.5q0 -238 -89 -385t-261 -147q-100 0 -172 51t-97 149q-51 -100 -139 -149t-188 -49q-111 0 -207 59t-154.5 172t-58.5 266q0 154 58.5 266.5t154.5 172t207 59.5q92 0 174 -42 t135 -124q6 41 10 143h148v-618q0 -203 135 -203q100 0 142 102.5t42 264.5q0 240 -92 409.5t-256 258.5t-379 89q-223 0 -398 -97t-273.5 -272t-98.5 -403q0 -225 96.5 -400t269.5 -271.5t394 -96.5q123 0 229.5 31t186.5 84l71 -123q-82 -70 -208.5 -107.5t-278.5 -37.5 q-266 0 -475 116.5t-326 325.5t-117 479zM733 649q0 -162 69.5 -249t188.5 -87q117 0 199 81t82 255q0 172 -82 253t-199 81q-121 0 -189.5 -87t-68.5 -247z" />
<glyph unicode="A" horiz-adv-x="1359" d="M14 0l576 1499h153l603 -1499h-203l-166 430h-621l-157 -430h-185zM418 594h495l-254 661z" />
<glyph unicode="B" horiz-adv-x="1333" d="M178 0v1499h473q158 0 274.5 -49t180 -141t63.5 -215q0 -215 -192 -308q280 -79 280 -362q0 -201 -137 -312.5t-405 -111.5h-537zM360 160h322q193 0 288 69.5t95 194.5q0 127 -95.5 198.5t-287.5 71.5h-322v-534zM360 846h261q170 0 263 65.5t93 182.5q0 113 -94.5 178 t-261.5 65h-261v-491z" />
<glyph unicode="C" horiz-adv-x="1333" d="M102 752q0 225 90.5 401t246 273.5t345.5 97.5q174 0 307.5 -82t196.5 -228l-147 -86q-115 227 -361 228q-143 0 -253.5 -76t-171 -213t-60.5 -315t60.5 -316.5t171 -214.5t253.5 -76q246 1 361 228l147 -86q-63 -145 -196.5 -227.5t-307.5 -82.5q-190 0 -345.5 98.5 t-246 274.5t-90.5 402z" />
<glyph unicode="D" horiz-adv-x="1462" d="M178 0v1499h410q219 0 394 -88t275.5 -257t100.5 -402q0 -236 -99.5 -405t-274.5 -258t-396 -89h-410zM360 162h203q283 0 442.5 153.5t159.5 436.5q0 279 -160.5 433t-441.5 154h-203v-1177z" />
<glyph unicode="E" horiz-adv-x="1220" d="M178 0v1501h920v-162h-738v-483h660v-162h-660v-532h760v-162h-942z" />
<glyph unicode="F" horiz-adv-x="1157" d="M178 0v1499h920v-162h-738v-506h660v-161h-660v-670h-182z" />
<glyph unicode="G" horiz-adv-x="1433" d="M102 754q0 225 93.5 400t256 272.5t361.5 97.5q176 0 314.5 -76t201.5 -211l-147 -86q-49 92 -147.5 148.5t-229.5 56.5q-150 0 -265.5 -76t-180 -212t-64.5 -314q0 -180 67.5 -318.5t190.5 -214.5t285 -76q209 0 317 115v361h-317v163h499v-583q-66 -96 -203 -160 t-309 -64q-207 0 -371.5 97.5t-258 274.5t-93.5 405z" />
<glyph unicode="H" horiz-adv-x="1525" d="M178 0v1499h182v-639h805v639h183v-1499h-183v696h-805v-696h-182z" />
<glyph unicode="I" horiz-adv-x="538" d="M178 0v1499h182v-1499h-182z" />
<glyph unicode="J" horiz-adv-x="935" d="M0 244l143 84q51 -182 226 -183q117 0 169 82t52 240v1032h182v-1050q0 -244 -112.5 -358t-290.5 -114q-136 0 -236 66t-133 201z" />
<glyph unicode="K" horiz-adv-x="1388" d="M178 0v1499h182v-797l734 797h237l-608 -639l659 -860h-233l-553 725l-236 -248v-477h-182z" />
<glyph unicode="L" horiz-adv-x="1159" d="M178 0v1499h182v-1335h740v-164h-922z" />
<glyph unicode="M" horiz-adv-x="1769" d="M178 0v1499h160l553 -891l551 891h149v-1499h-178v1143l-473 -756h-109l-477 760v-1147h-176z" />
<glyph unicode="N" horiz-adv-x="1515" d="M178 0v1499h154l833 -1173v1173h172v-1499h-153l-834 1176v-1176h-172z" />
<glyph unicode="O" horiz-adv-x="1562" d="M102 752q0 231 88.5 407t243 270.5t346.5 94.5q193 0 347.5 -95.5t242.5 -270.5t88 -406q0 -233 -89 -408.5t-242.5 -271t-346.5 -95.5t-347 94.5t-242.5 270.5t-88.5 410zM295 752q0 -179 58.5 -316t169 -214t257.5 -77t257 77t169.5 214t59.5 316q0 180 -59.5 317 t-169 213t-257.5 76q-147 0 -256.5 -76t-169 -213t-59.5 -317z" />
<glyph unicode="P" horiz-adv-x="1216" d="M178 0v1499h461q152 0 271.5 -59.5t187 -165t67.5 -240.5t-66.5 -240.5t-186 -164t-273.5 -58.5h-279v-571h-182zM360 731h256q172 0 264.5 85t92.5 218t-92.5 219t-264.5 86h-256v-608z" />
<glyph unicode="Q" horiz-adv-x="1562" d="M102 752q0 231 88.5 407t243 270.5t346.5 94.5q193 0 347.5 -95.5t242.5 -270.5t88 -406q0 -242 -95 -421t-259 -272l473 -370h-274l-394 301q-63 -12 -129 -13q-193 0 -347 94.5t-242.5 270.5t-88.5 410zM295 752q0 -179 58.5 -316t169 -214t257.5 -77t257 77t169.5 214 t59.5 316q0 180 -59.5 317t-169 213t-257.5 76q-147 0 -256.5 -76t-169 -213t-59.5 -317z" />
<glyph unicode="R" horiz-adv-x="1314" d="M178 0v1499h461q154 0 273.5 -55t186 -156.5t66.5 -232.5q0 -147 -84 -255t-231 -155l465 -645h-223l-435 614h-18h-279v-614h-182zM360 774h256q174 0 265.5 77t91.5 204t-91 205.5t-266 78.5h-256v-565z" />
<glyph unicode="S" horiz-adv-x="1173" d="M35 352l147 86q55 -141 164 -217t270 -76q147 0 229.5 65.5t82.5 182.5q0 94 -51.5 152.5t-126 91.5t-205.5 72q-145 43 -234.5 81.5t-151 116.5t-61.5 205q0 129 65.5 222t181.5 141.5t259 48.5q201 0 325 -88t167 -224l-148 -86q-47 109 -130 170.5t-220 61.5 q-139 0 -223 -62.5t-84 -167.5q0 -78 46 -127t115.5 -77.5t190.5 -63.5q154 -45 248 -88t161.5 -129t67.5 -227q0 -129 -59.5 -228.5t-174 -155t-272.5 -55.5q-219 0 -374.5 102.5t-204.5 272.5z" />
<glyph unicode="T" horiz-adv-x="1163" d="M25 1337v162h1114v-162h-467v-1337h-183v1337h-464z" />
<glyph unicode="U" horiz-adv-x="1497" d="M164 606v893h182v-864q0 -238 102.5 -364t299.5 -126t300 126t103 364v864h182v-893q0 -193 -69.5 -335t-201.5 -218t-314 -76q-274 0 -429 168t-155 461z" />
<glyph unicode="V" horiz-adv-x="1347" d="M14 1499h203l477 -1255l455 1255h184l-569 -1499h-154z" />
<glyph unicode="W" horiz-adv-x="1978" d="M18 1499h193l369 -1198l342 1200h153l369 -1200l340 1198h176l-453 -1499h-145l-369 1161l-352 -1161h-143z" />
<glyph unicode="X" horiz-adv-x="1347" d="M25 0l544 758l-530 741h225l418 -596l416 596h211l-531 -739l545 -760h-223l-434 612l-430 -612h-211z" />
<glyph unicode="Y" horiz-adv-x="1261" d="M14 1501h217l422 -682l396 682h198l-514 -866v-635h-182v641z" />
<glyph unicode="Z" horiz-adv-x="1179" d="M51 0v90l803 1247h-741v162h993v-88l-803 -1247h832v-164h-1084z" />
<glyph unicode="[" horiz-adv-x="704" d="M180 -227v1896h484v-160h-312v-1577h312v-159h-484z" />
<glyph unicode="\" horiz-adv-x="798" d="M31 1499h176l561 -1499h-176z" />
<glyph unicode="]" horiz-adv-x="704" d="M41 -68h311v1577h-311v160h483v-1896h-483v159z" />
<glyph unicode="^" horiz-adv-x="966" d="M63 737l343 764h155l342 -764h-176l-244 547l-243 -547h-177z" />
<glyph unicode="_" horiz-adv-x="847" d="M0 -170h848v-147h-848v147z" />
<glyph unicode="`" horiz-adv-x="618" d="M131 1530h193l168 -316h-154z" />
<glyph unicode="a" horiz-adv-x="1118" d="M106 307q0 158 128 249t331 91q115 0 238 -31v19q0 150 -60.5 222.5t-183.5 72.5q-98 0 -163.5 -41t-110.5 -121l-133 76q49 111 160.5 177t254.5 66q181 0 295.5 -109.5t114.5 -311.5v-666h-154q-6 104 -8 135q-49 -78 -132 -118t-189 -40q-102 0 -191.5 38t-143 113 t-53.5 179zM289 309q0 -86 61.5 -134t159.5 -48q121 0 207 70.5t86 195.5v78q-129 33 -236 33q-133 0 -205.5 -51.5t-72.5 -143.5z" />
<glyph unicode="b" horiz-adv-x="1243" d="M158 0v1559h174v-662q59 94 151 142t197 48q121 0 228.5 -66.5t173 -192.5t65.5 -296q0 -172 -65.5 -297.5t-173 -191.5t-228.5 -66q-106 0 -202.5 51.5t-153.5 153.5q-8 -88 -13 -182h-153zM332 532q0 -137 47 -225t120.5 -127t157.5 -39q140 0 224 102.5t84 288.5 q0 184 -84 287t-224 103q-133 0 -229 -94.5t-96 -295.5z" />
<glyph unicode="c" horiz-adv-x="1009" d="M96 532q0 164 67.5 290t184.5 195.5t260 69.5q125 0 222.5 -55t154.5 -168l-137 -80q-88 139 -244 140q-143 0 -233 -104.5t-90 -287.5q0 -182 90 -286.5t233 -104.5q156 1 244 140l137 -80q-57 -113 -154.5 -168.5t-222.5 -55.5q-143 0 -260 70t-184.5 196t-67.5 289z " />
<glyph unicode="d" horiz-adv-x="1243" d="M96 532q0 170 65.5 296t173 192.5t230.5 66.5q102 0 194.5 -47t151.5 -141v660h174v-1559h-153q-4 106 -12 180q-57 -102 -152.5 -152.5t-202.5 -50.5q-123 0 -230.5 66t-173 191.5t-65.5 297.5zM279 532q0 -186 83.5 -288.5t223.5 -102.5q133 0 229 94.5t96 296.5 q0 201 -96 295.5t-229 94.5q-139 0 -223 -102.5t-84 -287.5z" />
<glyph unicode="e" horiz-adv-x="1120" d="M96 537q0 170 68.5 294.5t183.5 190t252 65.5t240.5 -64.5t159 -175t55.5 -245.5q0 -57 -8 -104h-766q10 -182 104 -271.5t238 -89.5q178 0 258 144l133 -76q-41 -109 -152.5 -168.5t-249.5 -59.5q-143 0 -261 66t-186.5 191.5t-68.5 302.5zM287 639h579 q-6 137 -79.5 213t-192.5 76q-115 0 -200 -74t-107 -215z" />
<glyph unicode="f" horiz-adv-x="704" d="M41 915v150h184v106q0 213 96.5 311.5t243.5 98.5q66 0 120 -17.5t87 -43.5l-70 -140q-57 37 -129 37q-86 0 -130 -55t-44 -195v-102h277v-150h-277v-915h-174v915h-184z" />
<glyph unicode="g" horiz-adv-x="1243" d="M96 532q0 170 65.5 297t174 192.5t229.5 65.5q106 0 201.5 -51t153.5 -151q10 96 12 180h153v-997q0 -309 -147 -438.5t-350 -129.5q-158 0 -281 67.5t-168 190.5l142 80q80 -174 309 -174q150 0 235.5 90t85.5 318v92q-59 -94 -150 -140.5t-196 -46.5q-121 0 -228.5 67 t-174 192.5t-66.5 295.5zM279 532q0 -186 83.5 -288.5t223.5 -102.5q133 0 229 94.5t96 296.5q0 201 -96 295.5t-229 94.5q-139 0 -223 -102.5t-84 -287.5z" />
<glyph unicode="h" horiz-adv-x="1187" d="M158 0v1559h174v-656q55 90 143 137t197 47q166 0 270.5 -112.5t104.5 -319.5v-655h-175v606q0 152 -60 234t-179 82q-78 0 -146.5 -36t-111.5 -106.5t-43 -175.5v-604h-174z" />
<glyph unicode="i" horiz-adv-x="493" d="M131 1372q0 47 34 83t81 36q49 0 82.5 -35t33.5 -84q0 -47 -34.5 -83t-81.5 -36t-81 36t-34 83zM158 0v1063h174v-1063h-174z" />
<glyph unicode="j" horiz-adv-x="491" d="M-244 -410l105 127q51 -53 119 -53q178 0 178 252v1147h174v-1153q0 -143 -50.5 -234.5t-129 -133.5t-168.5 -42q-66 0 -127.5 22.5t-100.5 67.5zM129 1372q0 47 34 83t81 36q49 0 82.5 -35t33.5 -84t-33.5 -84t-82.5 -35q-45 0 -80 36t-35 83z" />
<glyph unicode="k" horiz-adv-x="1071" d="M158 0v1559h174v-1053l487 557h213l-395 -440l440 -623h-219l-342 487l-184 -204v-283h-174z" />
<glyph unicode="l" horiz-adv-x="489" d="M158 0v1559h174v-1559h-174z" />
<glyph unicode="m" horiz-adv-x="1748" d="M158 0v1063h153q2 -70 11 -162q53 92 134 139t177 47q106 0 187 -56t118 -167q51 113 138 168t192 55q151 0 245.5 -109.5t94.5 -313.5v-664h-172v606q0 154 -53.5 235t-157.5 81q-106 0 -181 -82t-75 -236v-604h-172v606q0 152 -53.5 234t-155.5 82q-106 0 -181 -83 t-75 -235v-604h-174z" />
<glyph unicode="n" horiz-adv-x="1187" d="M158 0v1063h153q4 -102 13 -176q53 98 144 149t204 51q170 0 272.5 -112.5t102.5 -319.5v-655h-175v606q0 152 -60 234t-179 82q-78 0 -146.5 -36t-111.5 -106.5t-43 -175.5v-604h-174z" />
<glyph unicode="o" horiz-adv-x="1210" d="M96 532q0 160 71 287t187.5 197.5t251.5 70.5t252 -69.5t186.5 -196.5t69.5 -289t-69.5 -287.5t-186.5 -196.5t-252 -71t-252.5 71t-187.5 197t-70 287zM281 532q0 -120 43 -208t116.5 -135.5t165.5 -47.5t166 47.5t116 135.5t42 208q0 121 -42 209t-116 135.5t-166 47.5 t-165.5 -47.5t-116.5 -135.5t-43 -209z" />
<glyph unicode="p" horiz-adv-x="1243" d="M158 -475v1538h153q4 -102 13 -180q57 102 152 153t204 51q121 0 228.5 -66.5t173 -192.5t65.5 -296q0 -172 -65.5 -297.5t-173 -191.5t-228.5 -66q-102 0 -195.5 48.5t-152.5 142.5v-643h-174zM332 532q0 -137 47 -225t120.5 -127t157.5 -39q140 0 224 102.5t84 288.5 t-84 289t-224 103q-84 0 -157.5 -39t-120.5 -127t-47 -226z" />
<glyph unicode="q" horiz-adv-x="1243" d="M96 532q0 170 65.5 296t173 192.5t230.5 66.5q106 0 201.5 -51t153.5 -151q10 96 12 178h153v-1538h-174v641q-59 -94 -152 -141.5t-194 -47.5q-123 0 -230.5 66t-173 191.5t-65.5 297.5zM279 532q0 -186 83.5 -288.5t223.5 -102.5q133 0 229 94.5t96 296.5 q0 137 -47 225.5t-120.5 127.5t-157.5 39q-139 0 -223 -102.5t-84 -289.5z" />
<glyph unicode="r" horiz-adv-x="765" d="M158 0v1063h153q4 -102 13 -174q90 198 278 198h2q49 0 91 -13t69 -34l-64 -141q-41 25 -98 25q-119 0 -194.5 -97.5t-75.5 -283.5v-543h-174z" />
<glyph unicode="s" horiz-adv-x="931" d="M61 238l134 75q76 -178 282 -178q100 0 157.5 41t57.5 113q0 55 -33.5 90t-84 54.5t-140.5 45.5q-109 31 -176.5 59.5t-114.5 85t-47 148.5q0 96 52.5 168t141.5 109.5t195 37.5q139 0 239.5 -61t135.5 -168l-133 -76q-33 70 -97.5 108t-152.5 38q-90 0 -144 -36 t-54 -104q0 -49 31.5 -79.5t78.5 -49t133 -43.5q113 -31 182.5 -60.5t119.5 -91t50 -161.5q0 -96 -50 -170t-140 -115t-207 -41q-156 0 -268.5 70t-147.5 191z" />
<glyph unicode="t" horiz-adv-x="753" d="M23 913v152h176v297h174v-297h309v-152h-309v-548q0 -223 168 -224q74 0 137 37l57 -143q-84 -57 -215 -58q-322 0 -321 367v569h-176z" />
<glyph unicode="u" horiz-adv-x="1189" d="M143 410v655h174v-608q0 -152 60.5 -234t177.5 -82q78 0 146.5 36t111.5 107.5t43 176.5v604h174v-1065h-153q-4 104 -13 174q-53 -98 -145 -147.5t-201 -49.5q-170 0 -272.5 113t-102.5 320z" />
<glyph unicode="v" horiz-adv-x="1054" d="M20 1063h199l328 -832l307 832h180l-428 -1063h-141z" />
<glyph unicode="w" horiz-adv-x="1595" d="M20 1063h183l278 -799l256 799h135l279 -799l260 799h164l-377 -1063h-115l-282 778l-271 -778h-118z" />
<glyph unicode="x" horiz-adv-x="1017" d="M23 0l389 526l-389 537h217l276 -393l281 393h198l-385 -528l385 -535h-213l-274 393l-283 -393h-202z" />
<glyph unicode="y" horiz-adv-x="1064" d="M2 -436l70 141q23 -18 58.5 -29.5t70.5 -11.5q63 0 107 43t95 162l52 119l-443 1075h201l334 -854l317 854h180l-497 -1256q-66 -166 -139.5 -236.5t-206.5 -70.5q-125 0 -199 64z" />
<glyph unicode="z" horiz-adv-x="970" d="M68 0v94l573 821h-539v148h777v-92l-570 -824h592v-147h-833z" />
<glyph unicode="{" horiz-adv-x="755" d="M82 627v188q84 0 130 22.5t66.5 76t20.5 151.5v248q0 201 90 278.5t275 77.5h47v-160h-60q-92 0 -131 -47t-39 -168v-245q0 -145 -47 -224.5t-145 -103.5q98 -25 145 -103.5t47 -224.5v-246q0 -121 39 -168t131 -47h60v-159h-47q-184 0 -274.5 77.5t-90.5 278.5v248 q0 100 -21.5 153.5t-67.5 75t-128 21.5z" />
<glyph unicode="|" horiz-adv-x="374" d="M104 -227v1896h166v-1896h-166z" />
<glyph unicode="}" horiz-adv-x="755" d="M45 -68h59q92 0 131 47.5t39 167.5v246q0 145 47.5 224t145.5 104q-98 25 -145.5 103.5t-47.5 224.5v245q0 121 -38.5 168t-131.5 47h-59v160h47q184 0 274.5 -78t90.5 -278v-248q0 -98 20.5 -151.5t66.5 -76t130 -22.5v-188q-82 0 -128 -21.5t-67.5 -75t-21.5 -153.5 v-248q0 -201 -90.5 -278.5t-274.5 -77.5h-47v159z" />
<glyph unicode="~" d="M117 580q4 147 78.5 246.5t203.5 99.5q74 0 119 -30t103 -89q41 -45 72.5 -67.5t72.5 -22.5q55 0 87 47t42 139h154q-4 -147 -77 -246.5t-202 -99.5q-76 0 -123 30.5t-102 90.5q-41 45 -72 66.5t-72 21.5q-57 0 -87.5 -47t-41.5 -139h-155z" />
<glyph unicode="&#xa1;" horiz-adv-x="481" d="M125 985q0 47 34 82t83 35q47 0 80.5 -35t33.5 -82q0 -49 -33.5 -84t-80.5 -35q-49 0 -83 35t-34 84zM152 -475l26 1132h129l27 -1132h-182z" />
<glyph unicode="&#xa2;" d="M125 750q0 211 122 350t318 174v227h166v-219q127 -8 222.5 -63.5t142.5 -157.5l-138 -80q-68 121 -227 137v-737q160 16 227 137l138 -80q-47 -102 -142.5 -157.5t-222.5 -63.5v-217h-166v225q-197 35 -318.5 174.5t-121.5 350.5zM309 750q0 -144 68.5 -235t187.5 -122 v713q-119 -31 -187.5 -122t-68.5 -234z" />
<glyph unicode="&#xa3;" d="M113 0v133q143 86 204.5 159t61.5 183q0 82 -35 176h-231v148h170q-29 68 -44.5 129t-15.5 131q0 133 62.5 239.5t171 166t241.5 59.5q170 0 285 -90.5t145 -219.5l-147 -86q-39 111 -106.5 169.5t-182.5 58.5q-129 0 -202.5 -76t-73.5 -213q0 -68 16.5 -130.5 t46.5 -137.5h402v-148h-342q33 -98 32 -172q0 -98 -46 -181t-122 -138h723v-160h-1013z" />
<glyph unicode="&#xa4;" horiz-adv-x="1183" d="M61 330l170 170q-80 109 -79 252q0 143 79 252l-168 165l111 113l168 -168q115 76 252 76t252 -76l168 168l110 -113l-166 -168q78 -113 78 -249q0 -143 -80 -252l168 -168l-112 -111l-170 166q-111 -76 -248 -76q-139 0 -252 78l-168 -170zM317 752q0 -78 37 -142.5 t99.5 -101.5t138.5 -37q119 0 197.5 81t78.5 200q0 76 -35.5 139t-99 101t-141.5 38q-76 0 -138.5 -38t-99.5 -101.5t-37 -138.5z" />
<glyph unicode="&#xa5;" d="M-12 1499h221l397 -616l371 616h203l-447 -717h332v-147h-379v-154h379v-147h-379v-334h-182v334h-357v147h357v154h-357v147h310z" />
<glyph unicode="&#xa6;" horiz-adv-x="374" d="M104 -227v751h166v-751h-166zM104 918v751h166v-751h-166z" />
<glyph unicode="&#xa7;" horiz-adv-x="1202" d="M59 532q0 119 65.5 206t186.5 128q-139 100 -139 277q0 123 63.5 209t171 129t236.5 43q125 0 225.5 -44t163 -117t78.5 -155l-145 -90q-31 106 -114 173t-212 67q-123 0 -198.5 -51.5t-75.5 -149.5q0 -78 46 -128t114.5 -79.5t189.5 -70.5q139 -45 224 -85t144.5 -114 t59.5 -188q0 -119 -65.5 -206t-186.5 -128q139 -100 139 -277q0 -123 -63.5 -209t-171 -129t-236.5 -43q-125 0 -225.5 44t-162.5 117t-79 155l146 90q31 -106 113.5 -173t211.5 -67q123 0 199 51.5t76 149.5q0 78 -46.5 128t-115 79.5t-189.5 70.5q-139 45 -224 85 t-144.5 114t-59.5 188zM256 553q0 -74 45 -123t110.5 -77.5t184.5 -67.5q63 -20 82 -27q123 2 195.5 58.5t72.5 154.5q0 74 -45 123t-110.5 77.5t-184.5 67.5q-63 20 -82 27q-123 -2 -195.5 -58.5t-72.5 -154.5z" />
<glyph unicode="&#xa8;" horiz-adv-x="0" d="M-326 1372q0 49 34 84t81 35q49 0 83 -35t34 -84t-34 -84t-83 -35q-47 0 -81 35t-34 84zM94 1372q0 49 34 84t81 35q49 0 83 -35t34 -84t-34 -84t-83 -35q-47 0 -81 35t-34 84z" />
<glyph unicode="&#xa9;" horiz-adv-x="1753" d="M102 750q0 217 101.5 394t276.5 278.5t392 101.5q220 0 397 -101.5t278.5 -278.5t101.5 -394t-101.5 -393.5t-279.5 -278t-396 -101.5q-217 0 -392 101.5t-276.5 277.5t-101.5 394zM246 750q0 -176 82 -320.5t225 -227.5t319 -83q177 0 321 83t227 227t83 321 q0 178 -83 322.5t-227 226t-321 81.5q-176 0 -319 -81.5t-225 -226t-82 -322.5zM487 750q0 129 57.5 230t152 156.5t204.5 55.5q98 0 177 -45t118 -133l-123 -76q-29 51 -74 76.5t-100 25.5q-104 0 -177 -78.5t-73 -211.5t73 -212t177 -79q55 0 100 25.5t74 76.5l123 -76 q-39 -88 -118 -133t-177 -45q-111 0 -205 55.5t-151.5 157t-57.5 230.5z" />
<glyph unicode="&#xaa;" horiz-adv-x="831" d="M78 944q0 115 94 182.5t242 67.5q82 0 164 -20q0 115 -39 168t-133 53q-66 0 -112 -30t-79 -89l-104 59q37 84 118.5 133.5t184.5 49.5q135 0 220 -86t85 -238v-477h-125q0 41 -6 84q-37 -49 -95.5 -75t-130.5 -26q-119 0 -201.5 64.5t-82.5 179.5zM231 944q0 -61 40 -94 t104 -33q82 0 142.5 49t60.5 140v61q-86 18 -154 18q-94 0 -143.5 -36.5t-49.5 -104.5z" />
<glyph unicode="&#xab;" horiz-adv-x="1077" d="M33 537l391 456h203l-391 -456l391 -459h-203zM451 537l391 456h202l-391 -456l391 -459h-202z" />
<glyph unicode="&#xac;" d="M104 735v154h959v-555h-154v401h-805z" />
<glyph unicode="&#xad;" horiz-adv-x="999" d="M127 668v147h745v-147h-745z" />
<glyph unicode="&#xae;" horiz-adv-x="964" d="M76 1114q0 111 54 205t147.5 149.5t203.5 55.5q111 0 204 -55.5t148.5 -149.5t55.5 -205t-54.5 -204t-147.5 -147t-206 -54q-111 0 -204 54t-147 147.5t-54 203.5zM172 1114q0 -86 42 -157.5t112.5 -112.5t154.5 -41q86 0 157 42t113 113.5t42 155.5q0 86 -41 157.5 t-113 113.5t-158 42q-84 0 -155.5 -42t-112.5 -113.5t-41 -157.5zM332 899v438h176q74 0 112.5 -35.5t38.5 -97.5q0 -47 -22.5 -78.5t-63.5 -46.5l117 -180h-108l-105 172h-51v-172h-94zM426 1151h63q78 0 78 53t-78 53h-63v-106z" />
<glyph unicode="&#xaf;" horiz-adv-x="778" d="M61 1296v152h656v-152h-656z" />
<glyph unicode="&#xb0;" horiz-adv-x="620" d="M18 1417q0 82 39 150.5t105.5 107.5t146.5 39q127 0 210 -85t83 -212q0 -125 -83 -209t-210 -84q-80 0 -146.5 39t-105.5 105.5t-39 148.5zM154 1417q0 -74 43 -120t112 -46q72 0 116 46t44 120q0 76 -44 123t-116 47q-70 0 -112.5 -47t-42.5 -123z" />
<glyph unicode="&#xb1;" d="M104 227v154h959v-154h-959zM104 809v156h402v323h156v-323h401v-156h-401v-324h-156v324h-402z" />
<glyph unicode="&#xb2;" horiz-adv-x="655" d="M49 983v90l281 313q51 55 70.5 93.5t19.5 76.5q0 45 -24.5 74t-78.5 29q-51 0 -94 -32t-65 -95l-103 59q31 92 104.5 142.5t166.5 50.5q115 0 176 -65.5t61 -153.5q0 -55 -27.5 -110.5t-91.5 -125.5l-204 -227h366v-119h-557z" />
<glyph unicode="&#xb3;" horiz-adv-x="653" d="M39 1149l104 63q23 -61 68 -94t102 -33q63 0 102.5 36t39.5 89q0 63 -50.5 95t-123.5 32h-52l-2 103h60q63 0 103 34.5t40 84.5q0 45 -31.5 75.5t-89.5 30.5q-51 0 -95 -29.5t-69 -85.5l-98 58q29 82 100.5 130t167.5 48q111 0 184.5 -61.5t73.5 -159.5q0 -119 -114 -174 q139 -50 139 -183q0 -104 -82 -172.5t-203 -68.5q-98 0 -170.5 48t-103.5 134z" />
<glyph unicode="&#xb4;" horiz-adv-x="618" d="M131 1214l168 316h193l-207 -316h-154z" />
<glyph unicode="&#xb5;" horiz-adv-x="1218" d="M158 -475v1540h174v-608q0 -152 60.5 -234t176.5 -82q78 0 146.5 36t111.5 107.5t43 176.5v602h174v-793q0 -72 23 -100.5t72 -28.5q33 0 55 11l20 -148q-47 -27 -116 -27q-100 0 -151.5 49.5t-61.5 145.5q-51 -96 -136 -145.5t-188 -49.5q-139 0 -229 84v-536h-174z" />
<glyph unicode="&#xb6;" horiz-adv-x="1191" d="M121 1186q-1 315 409 315h158v-1501h-158v874q-410 0 -409 312zM856 0v1501h158v-1501h-158z" />
<glyph unicode="&#xb7;" horiz-adv-x="1024" d="M397 748q0 49 34 83.5t81 34.5q49 0 83 -34.5t34 -83.5t-34 -84t-83 -35q-47 0 -81 35.5t-34 83.5z" />
<glyph unicode="&#xb8;" horiz-adv-x="651" d="M109 -352q72 -23 145 -23q139 0 139 70q0 37 -37 56.5t-100 19.5q-41 0 -98 -11l-13 80l84 215h152l-68 -174q96 4 163 -44t67 -134q0 -100 -78 -151.5t-199 -51.5q-55 0 -157 21v127z" />
<glyph unicode="&#xb9;" horiz-adv-x="507" d="M59 1536v121l209 112h107v-786h-135v651z" />
<glyph unicode="&#xba;" horiz-adv-x="882" d="M68 1108q0 123 51 216t137 143.5t186 50.5t185.5 -50.5t136.5 -143.5t51 -216t-51 -215t-136 -142.5t-186 -50.5q-100 0 -186 50.5t-137 142.5t-51 215zM221 1108q0 -131 62.5 -208t158.5 -77t158 77t62 208q0 133 -62.5 210t-157.5 77q-96 0 -158.5 -77t-62.5 -210z" />
<glyph unicode="&#xbb;" horiz-adv-x="1077" d="M33 78l391 459l-391 456h203l391 -456l-391 -459h-203zM451 78l391 459l-391 456h202l391 -456l-391 -459h-202z" />
<glyph unicode="&#xbc;" horiz-adv-x="1474" d="M59 1270v121l209 112h107v-786h-135v651zM147 0l1008 1501h141l-1007 -1501h-142zM836 178v88l301 527h139l-285 -498h207v184h129v-184h111v-117h-111v-172h-129v172h-362z" />
<glyph unicode="&#xbd;" horiz-adv-x="1536" d="M59 1270v121l209 112h107v-786h-135v651zM147 0l1008 1501h141l-1007 -1501h-142zM930 6v90l280 314q51 55 70.5 93t19.5 77q0 45 -24.5 73.5t-77.5 28.5q-51 0 -94 -32t-66 -95l-102 59q31 92 104.5 142.5t165.5 50.5q115 0 176.5 -65.5t61.5 -153.5q0 -55 -27.5 -110.5 t-91.5 -125.5l-205 -227h367v-119h-557z" />
<glyph unicode="&#xbe;" horiz-adv-x="1589" d="M39 883l104 63q23 -61 68 -94t102 -33q63 0 102.5 36t39.5 89q0 63 -50.5 95t-123.5 32h-52l-2 103h60q63 0 103 34.5t40 83.5q0 45 -31.5 76t-89.5 31q-51 0 -95 -30t-69 -85l-98 57q29 82 100.5 130.5t167.5 48.5q111 0 184.5 -61.5t73.5 -160.5q0 -119 -114 -174 q139 -49 139 -182q0 -104 -82 -173t-203 -69q-98 0 -170.5 48.5t-103.5 134.5zM262 0l1008 1501h141l-1008 -1501h-141zM950 178v88l301 527h140l-285 -498h207v184h129v-184h110v-117h-110v-172h-129v172h-363z" />
<glyph unicode="&#xbf;" horiz-adv-x="884" d="M20 -145q0 102 48.5 170.5t144.5 152.5q68 63 108.5 108.5t68.5 108t28 144.5q0 57 -15 116h142q27 -92 26 -170q0 -84 -27.5 -148.5t-66.5 -108.5t-104 -105q-80 -72 -119 -126t-39 -128q0 -92 63.5 -147.5t165.5 -55.5q209 0 304 232l141 -82q-51 -150 -175 -233 t-286 -83q-121 0 -213 46t-143.5 127t-51.5 182zM340 983q0 47 34 82t83 35q47 0 80.5 -35t33.5 -82q0 -49 -33.5 -84t-80.5 -35q-49 0 -83 35t-34 84z" />
<glyph unicode="&#xc0;" horiz-adv-x="1359" d="M14 0l576 1499h153l603 -1499h-203l-166 430h-621l-157 -430h-185zM389 1901h193l168 -240h-154zM418 594h495l-254 661z" />
<glyph unicode="&#xc1;" horiz-adv-x="1359" d="M14 0l576 1499h153l603 -1499h-203l-166 430h-621l-157 -430h-185zM418 594h495l-254 661zM623 1661l168 240h192l-207 -240h-153z" />
<glyph unicode="&#xc2;" horiz-adv-x="1359" d="M14 0l576 1499h153l603 -1499h-203l-166 430h-621l-157 -430h-185zM350 1661l250 240h170l250 -240h-186l-148 147l-149 -147h-187zM418 594h495l-254 661z" />
<glyph unicode="&#xc3;" horiz-adv-x="1359" d="M14 0l576 1499h153l603 -1499h-203l-166 430h-621l-157 -430h-185zM348 1690q4 94 61.5 152.5t149.5 58.5q57 0 92 -17.5t74 -50.5q25 -20 42 -30.5t38 -10.5q31 0 50 24.5t26 61.5h143q-4 -94 -61.5 -152.5t-149.5 -58.5q-57 0 -92 17.5t-74 50.5q-25 20 -42 30.5 t-38 10.5q-59 0 -75 -86h-144zM418 594h495l-254 661z" />
<glyph unicode="&#xc4;" horiz-adv-x="1359" d="M14 0l576 1499h153l603 -1499h-203l-166 430h-621l-157 -430h-185zM360 1782q0 49 34 84t81 35q49 0 83 -35t34 -84t-34 -84t-83 -35q-47 0 -81 35t-34 84zM418 594h495l-254 661zM780 1782q0 49 34 84t81 35q49 0 83 -35t34 -84t-34 -84t-83 -35q-47 0 -81 35t-34 84z " />
<glyph unicode="&#xc5;" horiz-adv-x="1359" d="M14 0l576 1499h153l603 -1499h-203l-166 430h-621l-157 -430h-185zM418 594h495l-254 661zM465 1765q0 58 63.5 97t157.5 39q92 0 153.5 -39t61.5 -97q0 -59 -61.5 -98t-153.5 -39q-94 0 -157.5 39t-63.5 98zM582 1765q0 -30 28.5 -49.5t75.5 -19.5q45 0 72.5 19.5 t27.5 49.5q0 31 -27.5 49.5t-72.5 18.5q-47 0 -75.5 -18.5t-28.5 -49.5z" />
<glyph unicode="&#xc6;" horiz-adv-x="2066" d="M2 0l971 1501h971v-162h-738v-483h660v-162h-660v-532h760v-162h-942v442h-541l-282 -442h-199zM590 606h434v680z" />
<glyph unicode="&#xc7;" horiz-adv-x="1333" d="M102 752q0 225 90.5 401t246 273.5t345.5 97.5q174 0 307.5 -82t196.5 -228l-147 -86q-115 227 -361 228q-143 0 -253.5 -76t-171 -213t-60.5 -315t60.5 -316.5t171 -214.5t253.5 -76q246 1 361 228l147 -86q-59 -135 -180 -217t-279 -90l-38 -97q98 2 163.5 -45 t65.5 -135q0 -98 -84 -150.5t-201 -52.5q-72 0 -149 23v121q72 -23 145 -23q66 0 102.5 18.5t36.5 55.5q0 74 -165 74q-45 0 -70 -2l-12 75l57 144q-166 27 -297 129t-206 267t-75 370z" />
<glyph unicode="&#xc8;" horiz-adv-x="1220" d="M178 0v1501h920v-162h-738v-483h660v-162h-660v-532h760v-162h-942zM342 1901h193l167 -242h-153z" />
<glyph unicode="&#xc9;" horiz-adv-x="1220" d="M178 0v1501h920v-162h-738v-483h660v-162h-660v-532h760v-162h-942zM575 1659l168 242h193l-207 -242h-154z" />
<glyph unicode="&#xca;" horiz-adv-x="1220" d="M178 0v1501h920v-162h-738v-483h660v-162h-660v-532h760v-162h-942zM303 1659l250 242h170l250 -242h-187l-147 147l-150 -147h-186z" />
<glyph unicode="&#xcb;" horiz-adv-x="1220" d="M178 0v1501h920v-162h-738v-483h660v-162h-660v-532h760v-162h-942zM313 1800q0 41 34 71t81 30q49 0 83 -30t34 -71q0 -43 -34 -72.5t-83 -29.5q-47 0 -81 29.5t-34 72.5zM733 1800q0 41 34 71t81 30q49 0 83 -30t34 -71q0 -43 -34 -72.5t-83 -29.5q-47 0 -81 29.5 t-34 72.5z" />
<glyph unicode="&#xcc;" horiz-adv-x="538" d="M-27 1901h193l168 -242h-154zM178 0v1499h182v-1499h-182z" />
<glyph unicode="&#xcd;" horiz-adv-x="538" d="M178 0v1499h182v-1499h-182zM207 1659l168 242h192l-207 -242h-153z" />
<glyph unicode="&#xce;" horiz-adv-x="538" d="M-66 1659l250 242h170l250 -242h-186l-148 147l-149 -147h-187zM178 0v1499h182v-1499h-182z" />
<glyph unicode="&#xcf;" horiz-adv-x="538" d="M-55 1800q0 41 33.5 71t80.5 30q49 0 83 -30t34 -71q0 -43 -33.5 -72.5t-83.5 -29.5q-47 0 -80.5 29.5t-33.5 72.5zM178 0v1499h182v-1499h-182zM365 1800q0 41 33.5 71t80.5 30q49 0 83 -30t34 -71q0 -43 -34 -72.5t-83 -29.5q-47 0 -80.5 29.5t-33.5 72.5z" />
<glyph unicode="&#xd0;" horiz-adv-x="1501" d="M45 682v164h172v653h410q219 0 394 -88t275.5 -257t100.5 -402q0 -236 -99.5 -405t-274.5 -258t-396 -89h-410v682h-172zM399 162h203q283 0 442.5 153.5t159.5 436.5q0 279 -160.5 433t-441.5 154h-203v-493h281v-164h-281v-520z" />
<glyph unicode="&#xd1;" horiz-adv-x="1515" d="M178 0v1499h154l833 -1173v1173h172v-1499h-153l-834 1176v-1176h-172zM420 1690q4 94 61.5 152.5t149.5 58.5q57 0 92 -17.5t74 -50.5q25 -20 42 -30.5t38 -10.5q31 0 50 24.5t25 61.5h144q-4 -94 -61.5 -152.5t-149.5 -58.5q-57 0 -92 17.5t-74 50.5q-25 20 -42.5 30.5 t-37.5 10.5q-59 0 -76 -86h-143z" />
<glyph unicode="&#xd2;" horiz-adv-x="1562" d="M102 752q0 231 88.5 407t243 270.5t346.5 94.5q193 0 347.5 -95.5t242.5 -270.5t88 -406q0 -233 -89 -408.5t-242.5 -271t-346.5 -95.5t-347 94.5t-242.5 270.5t-88.5 410zM295 752q0 -179 58.5 -316t169 -214t257.5 -77t257 77t169.5 214t59.5 316q0 180 -59.5 317 t-169 213t-257.5 76q-147 0 -256.5 -76t-169 -213t-59.5 -317zM483 1901h193l168 -242h-154z" />
<glyph unicode="&#xd3;" horiz-adv-x="1562" d="M102 752q0 231 88.5 407t243 270.5t346.5 94.5q193 0 347.5 -95.5t242.5 -270.5t88 -406q0 -233 -89 -408.5t-242.5 -271t-346.5 -95.5t-347 94.5t-242.5 270.5t-88.5 410zM295 752q0 -179 58.5 -316t169 -214t257.5 -77t257 77t169.5 214t59.5 316q0 180 -59.5 317 t-169 213t-257.5 76q-147 0 -256.5 -76t-169 -213t-59.5 -317zM717 1659l168 242h192l-207 -242h-153z" />
<glyph unicode="&#xd4;" horiz-adv-x="1562" d="M102 752q0 231 88.5 407t243 270.5t346.5 94.5q193 0 347.5 -95.5t242.5 -270.5t88 -406q0 -233 -89 -408.5t-242.5 -271t-346.5 -95.5t-347 94.5t-242.5 270.5t-88.5 410zM295 752q0 -179 58.5 -316t169 -214t257.5 -77t257 77t169.5 214t59.5 316q0 180 -59.5 317 t-169 213t-257.5 76q-147 0 -256.5 -76t-169 -213t-59.5 -317zM444 1659l250 242h170l250 -242h-186l-148 147l-149 -147h-187z" />
<glyph unicode="&#xd5;" horiz-adv-x="1562" d="M102 752q0 231 88.5 407t243 270.5t346.5 94.5q193 0 347.5 -95.5t242.5 -270.5t88 -406q0 -233 -89 -408.5t-242.5 -271t-346.5 -95.5t-347 94.5t-242.5 270.5t-88.5 410zM295 752q0 -179 58.5 -316t169 -214t257.5 -77t257 77t169.5 214t59.5 316q0 180 -59.5 317 t-169 213t-257.5 76q-147 0 -256.5 -76t-169 -213t-59.5 -317zM442 1688q4 96 61.5 154.5t149.5 58.5q57 0 93 -18.5t73 -51.5q25 -20 42.5 -30.5t37.5 -10.5q31 0 50.5 24.5t25.5 63.5h143q-4 -96 -61.5 -154.5t-149.5 -58.5q-57 0 -93 18.5t-73 51.5q-25 20 -42 30.5 t-37 10.5q-61 0 -76 -88h-144z" />
<glyph unicode="&#xd6;" horiz-adv-x="1562" d="M102 752q0 231 88.5 407t243 270.5t346.5 94.5q193 0 347.5 -95.5t242.5 -270.5t88 -406q0 -233 -89 -408.5t-242.5 -271t-346.5 -95.5t-347 94.5t-242.5 270.5t-88.5 410zM295 752q0 -179 58.5 -316t169 -214t257.5 -77t257 77t169.5 214t59.5 316q0 180 -59.5 317 t-169 213t-257.5 76q-147 0 -256.5 -76t-169 -213t-59.5 -317zM455 1800q0 41 33.5 71t80.5 30q49 0 83 -30t34 -71q0 -43 -34 -72.5t-83 -29.5q-47 0 -80.5 29.5t-33.5 72.5zM874 1800q0 41 34 71t81 30q49 0 83 -30t34 -71q0 -43 -34 -72.5t-83 -29.5q-47 0 -81 29.5 t-34 72.5z" />
<glyph unicode="&#xd7;" d="M154 422l319 319l-319 320l110 110l320 -319l319 319l111 -110l-320 -320l320 -319l-111 -111l-319 320l-320 -320z" />
<glyph unicode="&#xd8;" horiz-adv-x="1572" d="M104 -70l193 271q-90 104 -138 243.5t-48 307.5q0 225 89 401t243.5 273.5t344.5 97.5q209 0 373 -117l117 164h190l-192 -268q90 -104 140 -244.5t50 -306.5q0 -225 -89 -401.5t-243.5 -275t-345.5 -98.5q-213 0 -376 117l-117 -164h-191zM303 752q1 -240 103 -400 l657 918q-117 88 -275 88q-147 0 -256.5 -76t-169 -213t-59.5 -317zM512 236q119 -90 276 -91q147 0 257 77t168.5 214t58.5 316q-1 239 -103 399z" />
<glyph unicode="&#xd9;" horiz-adv-x="1497" d="M164 606v893h182v-864q0 -238 102.5 -364t299.5 -126t300 126t103 364v864h182v-893q0 -193 -69.5 -335t-201.5 -218t-314 -76q-274 0 -429 168t-155 461zM451 1901h192l168 -242h-154z" />
<glyph unicode="&#xda;" horiz-adv-x="1497" d="M164 606v893h182v-864q0 -238 102.5 -364t299.5 -126t300 126t103 364v864h182v-893q0 -193 -69.5 -335t-201.5 -218t-314 -76q-274 0 -429 168t-155 461zM684 1659l168 242h192l-206 -242h-154z" />
<glyph unicode="&#xdb;" horiz-adv-x="1497" d="M164 606v893h182v-864q0 -238 102.5 -364t299.5 -126t300 126t103 364v864h182v-893q0 -193 -69.5 -335t-201.5 -218t-314 -76q-274 0 -429 168t-155 461zM412 1659l250 242h169l250 -242h-186l-147 147l-150 -147h-186z" />
<glyph unicode="&#xdc;" horiz-adv-x="1497" d="M164 606v893h182v-864q0 -238 102.5 -364t299.5 -126t300 126t103 364v864h182v-893q0 -193 -69.5 -335t-201.5 -218t-314 -76q-274 0 -429 168t-155 461zM422 1800q0 41 33.5 71t81.5 30q49 0 82.5 -30t33.5 -71q0 -43 -33.5 -72.5t-82.5 -29.5q-48 0 -81.5 29.5 t-33.5 72.5zM842 1800q0 41 33.5 71t80.5 30q49 0 83 -30t34 -71q0 -43 -33.5 -72.5t-83.5 -29.5q-47 0 -80.5 29.5t-33.5 72.5z" />
<glyph unicode="&#xdd;" horiz-adv-x="1261" d="M14 1501h217l422 -682l396 682h198l-514 -866v-635h-182v641zM580 1661l168 240h192l-207 -240h-153z" />
<glyph unicode="&#xde;" horiz-adv-x="1216" d="M178 0v1499h182v-282h279q152 0 271.5 -59.5t187 -165t67.5 -240.5t-66.5 -240.5t-186 -164t-273.5 -58.5h-279v-289h-182zM360 449h254q172 0 263.5 84.5t91.5 218.5q0 133 -91.5 219t-263.5 86h-254v-608z" />
<glyph unicode="&#xdf;" horiz-adv-x="1210" d="M158 0v1057q0 162 59 279.5t163.5 179t237.5 61.5q125 0 223.5 -53.5t155 -149.5t56.5 -217q0 -117 -51.5 -204t-153.5 -136q139 -41 214 -143.5t75 -247.5q0 -129 -56.5 -231.5t-163 -160t-251.5 -57.5q-78 0 -168 23v168q41 -14 72.5 -20.5t78.5 -6.5q145 0 223 76 t78 211q0 139 -86 221t-258 82h-86v146h41q158 0 232.5 77.5t74.5 200.5q0 117 -65.5 186.5t-184.5 69.5q-137 0 -211.5 -94t-74.5 -264v-1053h-174z" />
<glyph unicode="&#xe0;" horiz-adv-x="1118" d="M106 307q0 158 128 249t331 91q115 0 238 -31v19q0 150 -60.5 222.5t-183.5 72.5q-98 0 -163.5 -41t-110.5 -121l-133 76q49 111 160.5 177t254.5 66q181 0 295.5 -109.5t114.5 -311.5v-666h-154q-6 104 -8 135q-49 -78 -132 -118t-189 -40q-102 0 -191.5 38t-143 113 t-53.5 179zM289 309q0 -86 61.5 -134t159.5 -48q121 0 207 70.5t86 195.5v78q-129 33 -236 33q-133 0 -205.5 -51.5t-72.5 -143.5zM295 1528h192l168 -316h-153z" />
<glyph unicode="&#xe1;" horiz-adv-x="1118" d="M106 307q0 158 128 249t331 91q115 0 238 -31v19q0 150 -60.5 222.5t-183.5 72.5q-98 0 -163.5 -41t-110.5 -121l-133 76q49 111 160.5 177t254.5 66q181 0 295.5 -109.5t114.5 -311.5v-666h-154q-6 104 -8 135q-49 -78 -132 -118t-189 -40q-102 0 -191.5 38t-143 113 t-53.5 179zM289 309q0 -86 61.5 -134t159.5 -48q121 0 207 70.5t86 195.5v78q-129 33 -236 33q-133 0 -205.5 -51.5t-72.5 -143.5zM475 1212l168 316h193l-207 -316h-154z" />
<glyph unicode="&#xe2;" horiz-adv-x="1118" d="M106 307q0 158 128 249t331 91q115 0 238 -31v19q0 150 -60.5 222.5t-183.5 72.5q-98 0 -163.5 -41t-110.5 -121l-133 76q49 111 160.5 177t254.5 66q181 0 295.5 -109.5t114.5 -311.5v-666h-154q-6 104 -8 135q-49 -78 -132 -118t-189 -40q-102 0 -191.5 38t-143 113 t-53.5 179zM246 1212l235 316h164l236 -316h-176l-142 189l-141 -189h-176zM289 309q0 -86 61.5 -134t159.5 -48q121 0 207 70.5t86 195.5v78q-129 33 -236 33q-133 0 -205.5 -51.5t-72.5 -143.5z" />
<glyph unicode="&#xe3;" horiz-adv-x="1118" d="M106 307q0 158 128 249t331 91q115 0 238 -31v19q0 150 -60.5 222.5t-183.5 72.5q-98 0 -163.5 -41t-110.5 -121l-133 76q49 111 160.5 177t254.5 66q181 0 295.5 -109.5t114.5 -311.5v-666h-154q-6 104 -8 135q-49 -78 -132 -118t-189 -40q-102 0 -191.5 38t-143 113 t-53.5 179zM227 1253q4 117 61.5 188.5t149.5 71.5q57 0 92 -21.5t74 -61.5q27 -27 43.5 -39.5t36.5 -12.5q31 0 50.5 31t25.5 78h143q-4 -117 -61.5 -188.5t-149.5 -71.5q-57 0 -92 21.5t-74 62.5q-27 27 -43 39t-37 12q-59 0 -75 -109h-144zM289 309q0 -86 61.5 -134 t159.5 -48q121 0 207 70.5t86 195.5v78q-129 33 -236 33q-133 0 -205.5 -51.5t-72.5 -143.5z" />
<glyph unicode="&#xe4;" horiz-adv-x="1118" d="M106 307q0 158 128 249t331 91q115 0 238 -31v19q0 150 -60.5 222.5t-183.5 72.5q-98 0 -163.5 -41t-110.5 -121l-133 76q49 111 160.5 177t254.5 66q181 0 295.5 -109.5t114.5 -311.5v-666h-154q-6 104 -8 135q-49 -78 -132 -118t-189 -40q-102 0 -191.5 38t-143 113 t-53.5 179zM240 1370q0 49 33.5 84t80.5 35q49 0 83 -35t34 -84t-34 -84t-83 -35q-47 0 -80.5 35t-33.5 84zM289 309q0 -86 61.5 -134t159.5 -48q121 0 207 70.5t86 195.5v78q-129 33 -236 33q-133 0 -205.5 -51.5t-72.5 -143.5zM659 1370q0 49 34 84t81 35q49 0 83 -35 t34 -84t-34 -84t-83 -35q-47 0 -81 35t-34 84z" />
<glyph unicode="&#xe5;" horiz-adv-x="1118" d="M106 307q0 158 128 249t331 91q115 0 238 -31v19q0 150 -60.5 222.5t-183.5 72.5q-98 0 -163.5 -41t-110.5 -121l-133 76q49 111 160.5 177t254.5 66q181 0 295.5 -109.5t114.5 -311.5v-666h-154q-6 104 -8 135q-49 -78 -132 -118t-189 -40q-102 0 -191.5 38t-143 113 t-53.5 179zM289 309q0 -86 61.5 -134t159.5 -48q121 0 207 70.5t86 195.5v78q-129 33 -236 33q-133 0 -205.5 -51.5t-72.5 -143.5zM344 1407q0 94 63.5 155.5t157.5 61.5q92 0 153.5 -61.5t61.5 -155.5t-61.5 -155.5t-153.5 -61.5q-94 0 -157.5 61.5t-63.5 155.5zM461 1407 q0 -49 28.5 -80t75.5 -31q45 0 73 31t28 80t-28 80t-73 31q-47 0 -75.5 -31t-28.5 -80z" />
<glyph unicode="&#xe6;" horiz-adv-x="1830" d="M106 307q0 158 127 249t336 91q117 0 246 -31q0 154 -63.5 234t-198.5 80q-94 0 -159.5 -41t-108.5 -125l-133 76q49 115 158.5 181t252.5 66q127 0 219 -53t140 -153q63 100 164.5 153t224.5 53q137 0 240.5 -64.5t158.5 -175t55 -245.5q0 -57 -8 -104h-766 q10 -182 104.5 -271.5t237.5 -89.5q178 0 258 144l133 -76q-41 -109 -152.5 -168.5t-248.5 -59.5q-133 0 -240.5 57.5t-171.5 166.5q-43 -109 -148.5 -166.5t-248.5 -57.5q-174 0 -291 87.5t-117 242.5zM289 309q0 -86 63.5 -134t167.5 -48q127 0 211 69.5t84 196.5v78 q-145 35 -248 35q-135 0 -206.5 -52.5t-71.5 -144.5zM997 639h580q-6 137 -80 213t-192 76q-115 0 -200 -74t-108 -215z" />
<glyph unicode="&#xe7;" horiz-adv-x="1009" d="M96 532q0 164 67.5 290t184.5 195.5t260 69.5q125 0 222.5 -55t154.5 -168l-137 -80q-88 139 -244 140q-143 0 -233 -104.5t-90 -287.5q0 -182 90 -286.5t233 -104.5q156 1 244 140l137 -80q-51 -100 -134 -155.5t-189 -65.5l-39 -97q98 2 163.5 -45t65.5 -135 q0 -98 -79 -150.5t-198 -52.5q-63 0 -157 23v127q78 -25 145 -25q139 0 139 72q0 37 -37.5 56.5t-101.5 19.5q-39 0 -96 -11l-12 80l57 144q-121 23 -215 96.5t-147.5 190t-53.5 259.5z" />
<glyph unicode="&#xe8;" horiz-adv-x="1120" d="M96 537q0 170 68.5 294.5t183.5 190t252 65.5t240.5 -64.5t159 -175t55.5 -245.5q0 -57 -8 -104h-766q10 -182 104 -271.5t238 -89.5q178 0 258 144l133 -76q-41 -109 -152.5 -168.5t-249.5 -59.5q-143 0 -261 66t-186.5 191.5t-68.5 302.5zM287 639h579 q-6 137 -79.5 213t-192.5 76q-115 0 -200 -74t-107 -215zM330 1528h192l168 -316h-153z" />
<glyph unicode="&#xe9;" horiz-adv-x="1120" d="M96 537q0 170 68.5 294.5t183.5 190t252 65.5t240.5 -64.5t159 -175t55.5 -245.5q0 -57 -8 -104h-766q10 -182 104 -271.5t238 -89.5q178 0 258 144l133 -76q-41 -109 -152.5 -168.5t-249.5 -59.5q-143 0 -261 66t-186.5 191.5t-68.5 302.5zM287 639h579 q-6 137 -79.5 213t-192.5 76q-115 0 -200 -74t-107 -215zM510 1212l168 316h192l-206 -316h-154z" />
<glyph unicode="&#xea;" horiz-adv-x="1120" d="M96 537q0 170 68.5 294.5t183.5 190t252 65.5t240.5 -64.5t159 -175t55.5 -245.5q0 -57 -8 -104h-766q10 -182 104 -271.5t238 -89.5q178 0 258 144l133 -76q-41 -109 -152.5 -168.5t-249.5 -59.5q-143 0 -261 66t-186.5 191.5t-68.5 302.5zM281 1212l235 316h164 l235 -316h-176l-141 189l-141 -189h-176zM287 639h579q-6 137 -79.5 213t-192.5 76q-115 0 -200 -74t-107 -215z" />
<glyph unicode="&#xeb;" horiz-adv-x="1120" d="M96 537q0 170 68.5 294.5t183.5 190t252 65.5t240.5 -64.5t159 -175t55.5 -245.5q0 -57 -8 -104h-766q10 -182 104 -271.5t238 -89.5q178 0 258 144l133 -76q-41 -109 -152.5 -168.5t-249.5 -59.5q-143 0 -261 66t-186.5 191.5t-68.5 302.5zM274 1370q0 49 34 84t81 35 q49 0 83 -35t34 -84t-34 -84t-83 -35q-47 0 -81 35t-34 84zM287 639h579q-6 137 -79.5 213t-192.5 76q-115 0 -200 -74t-107 -215zM694 1370q0 49 34 84t81 35q49 0 83 -35t34 -84t-34 -84t-83 -35q-47 0 -81 35t-34 84z" />
<glyph unicode="&#xec;" horiz-adv-x="489" d="M-25 1530h193l168 -316h-154zM158 0v1063h174v-1063h-174z" />
<glyph unicode="&#xed;" horiz-adv-x="489" d="M156 1214l168 316h192l-207 -316h-153zM158 0v1063h174v-1063h-174z" />
<glyph unicode="&#xee;" horiz-adv-x="489" d="M-74 1214l236 316h164l235 -316h-176l-141 189l-142 -189h-176zM158 0v1063h174v-1063h-174z" />
<glyph unicode="&#xef;" horiz-adv-x="489" d="M-80 1372q0 49 34 84t81 35q49 0 83 -35t34 -84t-34 -84t-83 -35q-47 0 -81 35t-34 84zM158 0v1063h174v-1063h-174zM340 1372q0 49 34 84t81 35q49 0 82.5 -35t33.5 -84t-33.5 -84t-82.5 -35q-47 0 -81 35t-34 84z" />
<glyph unicode="&#xf0;" horiz-adv-x="1210" d="M96 535q0 160 70 286.5t185.5 197.5t246.5 71q68 0 127 -20.5t102 -55.5q-76 129 -209 235l-280 -151l-68 131l211 114q-98 61 -215 105l90 133q145 -53 287 -147l270 147l72 -133l-215 -117q166 -154 255 -351.5t89 -397.5q0 -176 -66.5 -314.5t-182 -214.5t-259.5 -76 q-145 0 -261 72t-182.5 199t-66.5 287zM281 535q0 -178 90 -286t235 -108q146 0 235 107.5t89 286.5q0 178 -89 284.5t-235 106.5q-145 0 -235 -107.5t-90 -283.5z" />
<glyph unicode="&#xf1;" horiz-adv-x="1187" d="M158 0v1063h153q4 -102 13 -176q53 98 144 149t204 51q170 0 272.5 -112.5t102.5 -319.5v-655h-175v606q0 152 -60 234t-179 82q-78 0 -146.5 -36t-111.5 -106.5t-43 -175.5v-604h-174zM254 1255q4 117 61.5 189t149.5 72q57 0 92 -21.5t74 -62.5q27 -27 43 -39.5 t37 -12.5q31 0 50 31t25 78h144q-4 -117 -61.5 -188.5t-149.5 -71.5q-57 0 -92 21.5t-74 62.5q-27 27 -43 39t-37 12q-59 0 -76 -109h-143z" />
<glyph unicode="&#xf2;" horiz-adv-x="1210" d="M96 532q0 160 71 287t187.5 197.5t251.5 70.5t252 -69.5t186.5 -196.5t69.5 -289t-69.5 -287.5t-186.5 -196.5t-252 -71t-252.5 71t-187.5 197t-70 287zM281 532q0 -120 43 -208t116.5 -135.5t165.5 -47.5t166 47.5t116 135.5t42 208q0 121 -42 209t-116 135.5t-166 47.5 t-165.5 -47.5t-116.5 -135.5t-43 -209zM336 1528h192l168 -316h-153z" />
<glyph unicode="&#xf3;" horiz-adv-x="1210" d="M96 532q0 160 71 287t187.5 197.5t251.5 70.5t252 -69.5t186.5 -196.5t69.5 -289t-69.5 -287.5t-186.5 -196.5t-252 -71t-252.5 71t-187.5 197t-70 287zM281 532q0 -120 43 -208t116.5 -135.5t165.5 -47.5t166 47.5t116 135.5t42 208q0 121 -42 209t-116 135.5t-166 47.5 t-165.5 -47.5t-116.5 -135.5t-43 -209zM516 1212l168 316h193l-207 -316h-154z" />
<glyph unicode="&#xf4;" horiz-adv-x="1210" d="M96 532q0 160 71 287t187.5 197.5t251.5 70.5t252 -69.5t186.5 -196.5t69.5 -289t-69.5 -287.5t-186.5 -196.5t-252 -71t-252.5 71t-187.5 197t-70 287zM281 532q0 -120 43 -208t116.5 -135.5t165.5 -47.5t166 47.5t116 135.5t42 208q0 121 -42 209t-116 135.5t-166 47.5 t-165.5 -47.5t-116.5 -135.5t-43 -209zM287 1212l235 316h164l236 -316h-177l-141 189l-141 -189h-176z" />
<glyph unicode="&#xf5;" horiz-adv-x="1210" d="M96 532q0 160 71 287t187.5 197.5t251.5 70.5t252 -69.5t186.5 -196.5t69.5 -289t-69.5 -287.5t-186.5 -196.5t-252 -71t-252.5 71t-187.5 197t-70 287zM268 1253q4 117 61.5 188.5t149.5 71.5q57 0 92 -21.5t74 -61.5q27 -27 43.5 -39.5t36.5 -12.5q31 0 50.5 31 t25.5 78h143q-4 -117 -61.5 -188.5t-149.5 -71.5q-57 0 -92 21.5t-74 62.5q-27 27 -43 39t-37 12q-59 0 -75 -109h-144zM281 532q0 -120 43 -208t116.5 -135.5t165.5 -47.5t166 47.5t116 135.5t42 208q0 121 -42 209t-116 135.5t-166 47.5t-165.5 -47.5t-116.5 -135.5 t-43 -209z" />
<glyph unicode="&#xf6;" horiz-adv-x="1210" d="M96 532q0 160 71 287t187.5 197.5t251.5 70.5t252 -69.5t186.5 -196.5t69.5 -289t-69.5 -287.5t-186.5 -196.5t-252 -71t-252.5 71t-187.5 197t-70 287zM281 532q0 -120 43 -208t116.5 -135.5t165.5 -47.5t166 47.5t116 135.5t42 208q0 121 -42 209t-116 135.5t-166 47.5 t-165.5 -47.5t-116.5 -135.5t-43 -209zM281 1370q0 49 33.5 84t80.5 35q49 0 83 -35t34 -84t-34 -84t-83 -35q-47 0 -80.5 35t-33.5 84zM700 1370q0 49 34 84t81 35q49 0 83 -35t34 -84t-34 -84t-83 -35q-47 0 -81 35t-34 84z" />
<glyph unicode="&#xf7;" d="M104 664v155h959v-155h-959zM469 362q0 49 34 84t81 35q49 0 82.5 -34.5t33.5 -84.5q0 -49 -33.5 -83.5t-82.5 -34.5q-47 0 -81 35.5t-34 82.5zM469 1120q0 49 34 84t81 35q49 0 82.5 -35t33.5 -84t-33.5 -84t-82.5 -35q-47 0 -81 36t-34 83z" />
<glyph unicode="&#xf8;" horiz-adv-x="1210" d="M96 -70l146 209q-68 76 -107 175.5t-39 217.5q0 160 71 287t187.5 197.5t251.5 70.5q131 0 248 -67l80 115h180l-145 -209q68 -76 106.5 -175.5t38.5 -218.5q0 -162 -69.5 -287.5t-186.5 -196.5t-252 -71q-131 0 -250 68l-80 -115h-180zM281 532q0 -147 63 -245l416 598 q-72 39 -154 39q-92 0 -165.5 -47.5t-116.5 -135.5t-43 -209zM451 182q72 -41 155 -41q92 0 166 47.5t116 135.5t42 208q-1 150 -64 248z" />
<glyph unicode="&#xf9;" horiz-adv-x="1187" d="M143 410v655h174v-608q0 -152 60.5 -234t177.5 -82q78 0 146.5 36t111.5 107.5t43 176.5v604h174v-1065h-153q-4 104 -13 174q-53 -98 -145 -147.5t-201 -49.5q-170 0 -272.5 113t-102.5 320zM324 1530h192l168 -316h-154z" />
<glyph unicode="&#xfa;" horiz-adv-x="1187" d="M143 410v655h174v-608q0 -152 60.5 -234t177.5 -82q78 0 146.5 36t111.5 107.5t43 176.5v604h174v-1065h-153q-4 104 -13 174q-53 -98 -145 -147.5t-201 -49.5q-170 0 -272.5 113t-102.5 320zM504 1214l168 316h192l-207 -316h-153z" />
<glyph unicode="&#xfb;" horiz-adv-x="1187" d="M143 410v655h174v-608q0 -152 60.5 -234t177.5 -82q78 0 146.5 36t111.5 107.5t43 176.5v604h174v-1065h-153q-4 104 -13 174q-53 -98 -145 -147.5t-201 -49.5q-170 0 -272.5 113t-102.5 320zM274 1214l236 316h164l235 -316h-176l-141 189l-141 -189h-177z" />
<glyph unicode="&#xfc;" horiz-adv-x="1187" d="M143 410v655h174v-608q0 -152 60.5 -234t177.5 -82q78 0 146.5 36t111.5 107.5t43 176.5v604h174v-1065h-153q-4 104 -13 174q-53 -98 -145 -147.5t-201 -49.5q-170 0 -272.5 113t-102.5 320zM268 1372q0 49 34 84t81 35q49 0 83 -35t34 -84t-34 -84t-83 -35 q-47 0 -81 35t-34 84zM688 1372q0 49 34 84t81 35q49 0 83 -35t34 -84t-34 -84t-83 -35q-47 0 -81 35t-34 84z" />
<glyph unicode="&#xfd;" horiz-adv-x="1064" d="M2 -436l70 141q23 -18 58.5 -29.5t70.5 -11.5q63 0 107 43t95 162l52 119l-443 1075h201l334 -854l317 854h180l-497 -1256q-66 -166 -139.5 -236.5t-206.5 -70.5q-125 0 -199 64zM449 1214l167 316h193l-207 -316h-153z" />
<glyph unicode="&#xfe;" horiz-adv-x="1243" d="M158 -475v2034h174v-662q59 94 151 142t197 48q121 0 228.5 -66.5t173 -192.5t65.5 -296q0 -172 -65.5 -297.5t-173 -191.5t-228.5 -66q-102 0 -195.5 48.5t-152.5 142.5v-643h-174zM332 532q0 -137 47 -225t120.5 -127t157.5 -39q140 0 224 102.5t84 288.5t-84 289 t-224 103q-84 0 -157.5 -39t-120.5 -127t-47 -226z" />
<glyph unicode="&#xff;" horiz-adv-x="1064" d="M2 -436l70 141q23 -18 58.5 -29.5t70.5 -11.5q63 0 107 43t95 162l52 119l-443 1075h201l334 -854l317 854h180l-497 -1256q-66 -166 -139.5 -236.5t-206.5 -70.5q-125 0 -199 64zM213 1372q0 49 34 84t81 35q49 0 82.5 -35t33.5 -84t-33.5 -84t-82.5 -35q-47 0 -81 35 t-34 84zM633 1372q0 49 33.5 84t81.5 35q49 0 82.5 -35t33.5 -84t-33.5 -84t-82.5 -35q-48 0 -81.5 35t-33.5 84z" />
<glyph unicode="&#x152;" horiz-adv-x="2306" d="M102 752q0 225 89.5 401t244 273.5t344.5 97.5q158 0 281 -69t203 -195v241h919v-162h-737v-483h659v-162h-659v-532h760v-162h-942v242q-80 -127 -203 -196t-281 -69q-193 0 -347 97.5t-242.5 273.5t-88.5 404zM295 752q0 -178 58.5 -315.5t169 -214.5t257.5 -77 q148 0 257.5 77t168 214t58.5 316q0 180 -59.5 317t-169 213t-255.5 76q-147 0 -256.5 -76t-169 -213t-59.5 -317z" />
<glyph unicode="&#x153;" horiz-adv-x="1953" d="M96 532q0 160 71 287t188.5 197.5t254.5 70.5q129 0 236.5 -64.5t171.5 -180.5q59 121 167.5 183t244.5 62q139 0 242.5 -64.5t159.5 -175t56 -245.5q0 -57 -8 -104h-766q10 -182 104.5 -271.5t237.5 -89.5q178 0 258 144l133 -76q-41 -109 -153.5 -168.5t-251.5 -59.5 q-141 0 -252 62.5t-172 183.5q-63 -117 -171 -181.5t-237 -64.5q-137 0 -254.5 71t-188.5 197t-71 287zM281 532q0 -121 43 -208.5t116.5 -135t165.5 -47.5t166 47.5t116 135.5t42 208q0 121 -42 209t-116 135.5t-166 47.5t-165.5 -47.5t-116.5 -135.5t-43 -209zM1120 639 h580q-6 137 -80 213t-193 76q-114 0 -199 -74t-108 -215z" />
<glyph unicode="&#x178;" horiz-adv-x="1261" d="M14 1501h217l422 -682l396 682h198l-514 -866v-635h-182v641zM317 1800q0 41 34 71t81 30q49 0 83 -30t34 -71t-34 -70.5t-83 -29.5q-47 0 -81 29.5t-34 70.5zM737 1800q0 41 34 71t81 30q49 0 83 -30t34 -71t-34 -70.5t-83 -29.5q-47 0 -81 29.5t-34 70.5z" />
<glyph unicode="&#x2c6;" horiz-adv-x="851" d="M109 1214l235 316h164l235 -316h-176l-141 189l-141 -189h-176z" />
<glyph unicode="&#x2dc;" horiz-adv-x="892" d="M109 1255q4 117 61 189t149 72q57 0 92 -21.5t74 -62.5q27 -27 43.5 -39.5t36.5 -12.5q31 0 50.5 31t25.5 78h143q-4 -117 -61 -188.5t-150 -71.5q-57 0 -92 21.5t-73 62.5q-27 27 -43.5 39t-36.5 12q-59 0 -76 -109h-143z" />
<glyph unicode="&#x2000;" horiz-adv-x="950" vert-adv-y="0" />
<glyph unicode="&#x2001;" horiz-adv-x="1901" vert-adv-y="0" />
<glyph unicode="&#x2002;" horiz-adv-x="950" vert-adv-y="0" />
<glyph unicode="&#x2003;" horiz-adv-x="1901" vert-adv-y="0" />
<glyph unicode="&#x2004;" horiz-adv-x="633" vert-adv-y="0" />
<glyph unicode="&#x2005;" horiz-adv-x="475" vert-adv-y="0" />
<glyph unicode="&#x2006;" horiz-adv-x="316" vert-adv-y="0" />
<glyph unicode="&#x2007;" horiz-adv-x="316" vert-adv-y="0" />
<glyph unicode="&#x2008;" horiz-adv-x="237" vert-adv-y="0" />
<glyph unicode="&#x2009;" horiz-adv-x="380" vert-adv-y="0" />
<glyph unicode="&#x200a;" horiz-adv-x="105" vert-adv-y="0" />
<glyph unicode="&#x2010;" horiz-adv-x="999" d="M127 545v147h745v-147h-745z" />
<glyph unicode="&#x2011;" horiz-adv-x="999" d="M127 545v147h745v-147h-745z" />
<glyph unicode="&#x2012;" horiz-adv-x="999" d="M127 545v147h745v-147h-745z" />
<glyph unicode="&#x2013;" horiz-adv-x="1228" d="M127 668v147h975v-147h-975z" />
<glyph unicode="&#x2014;" horiz-adv-x="2048" d="M127 668v147h1794v-147h-1794z" />
<glyph unicode="&#x2018;" horiz-adv-x="628" d="M199 1315q0 139 72.5 229t191.5 113v-96q-139 -43 -148 -199q6 2 19 2q51 0 80.5 -35t29.5 -84t-31.5 -84t-80.5 -35q-60 0 -96.5 46.5t-36.5 142.5z" />
<glyph unicode="&#x2019;" horiz-adv-x="628" d="M166 1126v97q139 43 147 198q-6 -2 -18 -2q-51 0 -81 35t-30 84q0 51 32 85t81 34q59 0 96 -46t37 -143q0 -139 -72.5 -229t-191.5 -113z" />
<glyph unicode="&#x201a;" horiz-adv-x="493" d="M125 -225q139 43 147 198q-6 -2 -18 -2q-51 0 -81 35t-30 84q0 51 32 85t81 34q59 0 96 -46t37 -143q0 -139 -72.5 -229t-191.5 -113v97z" />
<glyph unicode="&#x201c;" horiz-adv-x="960" d="M199 1315q0 139 72.5 229t191.5 113v-96q-139 -43 -148 -199q6 2 19 2q51 0 80.5 -35t29.5 -84t-31.5 -84t-80.5 -35q-60 0 -96.5 46.5t-36.5 142.5zM530 1315q0 139 73 229t192 113v-96q-139 -43 -148 -199q6 2 19 2q51 0 80.5 -35t29.5 -84t-31.5 -84t-80.5 -35 q-60 0 -97 46.5t-37 142.5z" />
<glyph unicode="&#x201d;" horiz-adv-x="960" d="M166 1126v97q139 43 147 198q-6 -2 -18 -2q-51 0 -81 35t-30 84q0 51 32 85t81 34q59 0 96 -46t37 -143q0 -139 -72.5 -229t-191.5 -113zM498 1126v97q139 43 147 198q-6 -2 -18 -2q-51 0 -81 35t-30 84q0 51 32 85t81 34q59 0 96 -46t37 -143q0 -139 -73 -229t-191 -113 z" />
<glyph unicode="&#x201e;" horiz-adv-x="825" d="M125 -225q139 43 147 198q-6 -2 -18 -2q-51 0 -81 35t-30 84q0 51 32 85t81 34q59 0 96 -46t37 -143q0 -139 -72.5 -229t-191.5 -113v97zM457 -225q139 43 147 198q-6 -2 -18 -2q-51 0 -81 35t-30 84q0 51 32 85t81 34q59 0 96 -46t37 -143q0 -139 -73 -229t-191 -113v97 z" />
<glyph unicode="&#x2022;" horiz-adv-x="2048" d="M788 741q0 106 66 171t172 65q104 0 170 -64.5t66 -171.5q0 -106 -66 -170.5t-170 -64.5q-106 0 -172 64.5t-66 170.5z" />
<glyph unicode="&#x2026;" horiz-adv-x="2048" d="M229 96q0 49 34 84t81 35q49 0 83 -35t34 -84t-34 -84t-83 -35q-47 0 -81 36t-34 83zM909 96q0 49 34 84t81 35q49 0 83 -35t34 -84t-34 -84t-83 -35q-47 0 -81 36t-34 83zM1591 96q0 49 34 84t81 35q49 0 83 -35t34 -84t-34 -84t-83 -35q-47 0 -81 36t-34 83z" />
<glyph unicode="&#x202f;" horiz-adv-x="380" vert-adv-y="0" />
<glyph unicode="&#x2039;" horiz-adv-x="659" d="M33 537l391 456h203l-391 -456l391 -459h-203z" />
<glyph unicode="&#x203a;" horiz-adv-x="659" d="M33 78l391 459l-391 456h203l391 -456l-391 -459h-203z" />
<glyph unicode="&#x205f;" horiz-adv-x="475" vert-adv-y="0" />
<glyph unicode="&#x20ac;" d="M14 532v148h189q-2 23 -2 72q0 51 2 75h-189v148h203q41 266 180.5 407.5t352.5 141.5q158 0 269 -79t148 -231l-147 -86q-55 227 -268 228q-281 0 -342 -381h335v-148h-350q-2 -25 -2 -75q0 -49 2 -72h350v-148h-337q29 -188 115.5 -287.5t228.5 -99.5q213 1 268 228 l147 -86q-37 -152 -148.5 -231t-268.5 -79q-213 0 -353.5 143.5t-179.5 411.5h-203z" />
<glyph unicode="&#x2122;" horiz-adv-x="1669" d="M27 1376v125h637v-125h-248v-641h-144v641h-245zM772 735v766h115l280 -405l283 405h109v-766h-136v516l-219 -313h-76l-221 313v-516h-135z" />
<glyph unicode="&#x25fc;" horiz-adv-x="1064" vert-adv-y="2129" d="M0 0v1065h1065v-1065h-1065z" />
</font>
</defs>
</svg>
